<svg xmlns="http://www.w3.org/2000/svg" width="518.7539" height="203.0179" viewBox="0 0 518.7539 203.0179"><title>pee</title><path d="M135.5127,169.52c14.2915-4.4478,27.6077-1.5138,39.5109,6.6765,7.3962,5.089,6.656,10.4835-.7476,15.7041-.8629.6084-1.7173,1.2318-2.6075,1.7981a8.041,8.041,0,0,1-9.8971-.7253,24.2307,24.2307,0,0,1-4.0109-4.3549c-5.7529-8.734-12.7-15.8552-24.1552-17.8862A11.8049,11.8049,0,0,1,135.5127,169.52Z"/><path d="M46.0329,101.5135c-6.7278-5.8512-6.8877-11.6533-.29-17.7474,5.9343-5.4808,11.5143-4.4386,15.3056,2.8094a47.796,47.796,0,0,1,5.1261,23.3611c-.1056,5.9852-.696,12.0444-5.038,18.3379C60.81,115.88,53.9125,108.3663,46.0329,101.5135Z"/><path d="M145.7121,153.2952c-12.3889-2.2772-24.7444-4.7734-37.3967-2.2139-2.9323.5932-5.8011,1.5-8.6991,2.2624q-.462-.585-.9238-1.17c2.7043-2.598,5.0946-5.6679,8.1673-7.7125,13.4247-8.9325,28.4763-12.6025,44.4465-12.2783a29.0959,29.0959,0,0,1,11.023,2.917c4.6463,2.11,5.9377,6.4216,4.5612,12.2562-1.1743,4.9774-3.56,7.1305-8.97,7.121A68.5744,68.5744,0,0,1,145.7121,153.2952Z"/><path d="M18.7861,125.5948a46.4127,46.4127,0,0,1,24.6613,23.059c1.6687,3.4158,2.1278,7.4226,3.14,11.1589l-1.3943.6843c-6.5457-7.9739-15.52-11.1117-25.14-13.0143A134.2675,134.2675,0,0,1,5.7526,144.34C.28,142.6185-1.1654,138.8083.8961,133.3893,4.2577,124.5525,9.9106,121.9285,18.7861,125.5948Z"/><path d="M84.8611,174.0287c9.4359-3.4129,18.9058-2.5035,27.9891.838a48.3753,48.3753,0,0,1,13.8616,8.0927c6.4848,5.3732,3.1858,12.5222-1.6125,17.7272-3.6011,3.9062-8.0956,2.8345-13.6584-2.6964-.1876-.1865-.3352-.4138-.5261-.5964-9.1657-8.7712-17.8323-18.3505-32.7816-19.3677,2.0273-1.45,3.049-2.28,4.1681-2.9464A14.75,14.75,0,0,1,84.8611,174.0287Z"/><path d="M112.5483,101.2777c20.4675-19.3932,43.3891-35.5811,67.9674-49.3249,24.4777-13.6876,50.3987-24.0939,77.21-32.2382A461.4409,461.4409,0,0,1,363.0486,1.0309a455.8918,455.8918,0,0,1,69.8454.6407c13.69,1.2326,27.4113,2.71,40.9277,5.1391,14.9439,2.6857,29.67,6.5843,44.9322,10.055l-2.6847,5.955A402.3634,402.3634,0,0,0,454.0476,11.2a482.8723,482.8723,0,0,0-90.74-1.4829c-15.6847,1.228-31.3133,3.54-46.8659,6.0021A381.6224,381.6224,0,0,0,251.43,32.1406a371.8707,371.8707,0,0,0-77.0024,36.5227,337.8324,337.8324,0,0,0-60.0712,47.9454A322.6478,322.6478,0,0,0,80.3084,156.945a164.6664,164.6664,0,0,1-10.4222,13.43c-1.07,1.2158-3.9661,2.1641-5.201,1.5576-1.5567-.7647-2.8854-3.1533-3.1736-5.0174a9.5206,9.5206,0,0,1,1.3637-5.9607C76.654,138.7628,93.6548,119.1794,112.5483,101.2777Z"/><path d="M99.6163,153.3437c2.898-.7625,5.7668-1.6692,8.6992-2.2624,12.6523-2.5595,25.0077-.0633,37.3966,2.2139a68.5744,68.5744,0,0,0,12.2087,1.1818c5.41.01,7.7954-2.1436,8.97-7.121,1.3765-5.8345.0851-10.1461-4.5612-12.2561a29.0922,29.0922,0,0,0-11.023-2.917c-15.97-.3243-31.0218,3.3457-44.4465,12.2782-3.0727,2.0446-5.463,5.1145-8.1673,7.7125Z"/><path d="M78.1332,178.0262c14.9493,1.0171,23.6159,10.5964,32.7816,19.3676.1909.1827.3385.41.5261.5965,5.5628,5.5308,10.0572,6.6025,13.6583,2.6963,4.7984-5.2049,8.0974-12.354,1.6126-17.7272a48.3776,48.3776,0,0,0-13.8616-8.0927c-9.0833-3.3415-18.5532-4.2509-27.9892-.838a14.7489,14.7489,0,0,0-2.56,1.051C81.1822,175.7464,80.1605,176.5765,78.1332,178.0262Z"/><path d="M46.5877,159.8127c-1.0126-3.7363-1.4716-7.7431-3.14-11.1589a46.4122,46.4122,0,0,0-24.6614-23.059c-8.8754-3.6663-14.5283-1.0423-17.89,7.7945-2.0615,5.419-.6163,9.2292,4.8565,10.9508a134.2924,134.2924,0,0,0,14.3008,3.1427c9.62,1.9025,18.5943,5.04,25.14,13.0142Z"/><path d="M61.137,128.2745c4.3419-6.2935,4.9324-12.3527,5.038-18.3379a47.796,47.796,0,0,0-5.1261-23.3611c-3.7913-7.248-9.3714-8.29-15.3056-2.8093-6.5981,6.094-6.4382,11.8961.29,17.7473C53.9125,108.3663,60.81,115.88,61.137,128.2745Z"/><path d="M133.6053,170.7325c11.4553,2.0312,18.4023,9.1523,24.1552,17.8863a24.2307,24.2307,0,0,0,4.0109,4.3549,8.0409,8.0409,0,0,0,9.897.7253c.89-.5663,1.7447-1.19,2.6076-1.7981,7.4036-5.2206,8.1438-10.6151.7476-15.7041-11.9032-8.19-25.2194-11.1243-39.5109-6.6765A11.8092,11.8092,0,0,0,133.6053,170.7325Z"/></svg>